<?xml version="1.0" standalone="no"?>
 <!DOCTYPE svg PUBLIC "-//W3C//DTD SVG 1.1//EN" 
 "http://www.w3.org/Graphics/SVG/1.1/DTD/svg11.dtd"> 
<svg xmlns="http://www.w3.org/2000/svg" version="1.1" 
    width="29.7002cm" height="21.0007cm" viewBox="0 0 116930 82680 ">
<title>SVG Picture created as Regulador-ac-4a.sch.svg date 2017/12/05 11:07:27 </title>
  <desc>Picture generated by Eeschema-SVG </desc>
<g style="fill:#000000; fill-opacity:1;stroke:#000000; stroke-opacity:1;
stroke-linecap:round; stroke-linejoin:round; "
 transform="translate(0 0) scale(1 1)">
</g>
<g style="fill:#000000; fill-opacity:0.0; 
stroke:#000000; stroke-width:-10; stroke-opacity:1; 
stroke-linecap:round; stroke-linejoin:round;">
</g>
<g style="fill:#840000; fill-opacity:0.0; 
stroke:#840000; stroke-width:-10; stroke-opacity:1; 
stroke-linecap:round; stroke-linejoin:round;">
</g>
<g style="fill:#840000; fill-opacity:0.0; 
stroke:#840000; stroke-width:100; stroke-opacity:1; 
stroke-linecap:round; stroke-linejoin:round;">
</g>
<g style="fill:#840000; fill-opacity:0.0; 
stroke:#840000; stroke-width:60; stroke-opacity:1; 
stroke-linecap:round; stroke-linejoin:round;">
<rect x="69690" y="65360" width="42520" height="12600" rx="0" />
</g>
<g style="fill:#840000; fill-opacity:0.0; 
stroke:#840000; stroke-width:100; stroke-opacity:1; 
stroke-linecap:round; stroke-linejoin:round;">
</g>
<g style="fill:#840000; fill-opacity:0.0; 
stroke:#840000; stroke-width:60; stroke-opacity:1; 
stroke-linecap:round; stroke-linejoin:round;">
<rect x="3940" y="3940" width="109050" height="74800" rx="0" />
</g>
<g style="fill:#840000; fill-opacity:0.0; 
stroke:#840000; stroke-width:100; stroke-opacity:1; 
stroke-linecap:round; stroke-linejoin:round;">
</g>
<g style="fill:#840000; fill-opacity:0.0; 
stroke:#840000; stroke-width:60; stroke-opacity:1; 
stroke-linecap:round; stroke-linejoin:round;">
<rect x="4720" y="4720" width="107490" height="73240" rx="0" />
</g>
<g style="fill:#840000; fill-opacity:0.0; 
stroke:#840000; stroke-width:100; stroke-opacity:1; 
stroke-linecap:round; stroke-linejoin:round;">
</g>
<g style="fill:#840000; fill-opacity:0.0; 
stroke:#840000; stroke-width:60; stroke-opacity:1; 
stroke-linecap:round; stroke-linejoin:round;">
<path d="M23620 4720
L23620 3940
" />
</g>
<g style="fill:#840000; fill-opacity:0.0; 
stroke:#840000; stroke-width:100; stroke-opacity:1; 
stroke-linecap:round; stroke-linejoin:round;">
</g>
<g style="fill:#840000; fill-opacity:0.0; 
stroke:#840000; stroke-width:60; stroke-opacity:1; 
stroke-linecap:round; stroke-linejoin:round;">
<path d="M43310 4720
L43310 3940
" />
</g>
<g style="fill:#840000; fill-opacity:0.0; 
stroke:#840000; stroke-width:100; stroke-opacity:1; 
stroke-linecap:round; stroke-linejoin:round;">
</g>
<g style="fill:#840000; fill-opacity:0.0; 
stroke:#840000; stroke-width:60; stroke-opacity:1; 
stroke-linecap:round; stroke-linejoin:round;">
<path d="M62990 4720
L62990 3940
" />
</g>
<g style="fill:#840000; fill-opacity:0.0; 
stroke:#840000; stroke-width:100; stroke-opacity:1; 
stroke-linecap:round; stroke-linejoin:round;">
</g>
<g style="fill:#840000; fill-opacity:0.0; 
stroke:#840000; stroke-width:60; stroke-opacity:1; 
stroke-linecap:round; stroke-linejoin:round;">
<path d="M82680 4720
L82680 3940
" />
</g>
<g style="fill:#840000; fill-opacity:0.0; 
stroke:#840000; stroke-width:100; stroke-opacity:1; 
stroke-linecap:round; stroke-linejoin:round;">
</g>
<g style="fill:#840000; fill-opacity:0.0; 
stroke:#840000; stroke-width:60; stroke-opacity:1; 
stroke-linecap:round; stroke-linejoin:round;">
<path d="M102360 4720
L102360 3940
" />
</g>
<g style="fill:#840000; fill-opacity:0.0; 
stroke:#840000; stroke-width:100; stroke-opacity:1; 
stroke-linecap:round; stroke-linejoin:round;">
</g>
<g style="fill:#840000; fill-opacity:0.0; 
stroke:#840000; stroke-width:60; stroke-opacity:1; 
stroke-linecap:round; stroke-linejoin:round;">
<path d="M14170 4560
L13880 4560
" />
<path d="M14020 4560
L14020 4050
L13970 4120
L13930 4170
L13880 4190
" />
</g>
<g style="fill:#840000; fill-opacity:0.0; 
stroke:#840000; stroke-width:100; stroke-opacity:1; 
stroke-linecap:round; stroke-linejoin:round;">
</g>
<g style="fill:#840000; fill-opacity:0.0; 
stroke:#840000; stroke-width:60; stroke-opacity:1; 
stroke-linecap:round; stroke-linejoin:round;">
<path d="M33560 4090
L33580 4070
L33630 4050
L33750 4050
L33800 4070
L33820 4090
L33850 4140
L33850 4190
L33820 4260
L33530 4560
L33850 4560
" />
</g>
<g style="fill:#840000; fill-opacity:0.0; 
stroke:#840000; stroke-width:100; stroke-opacity:1; 
stroke-linecap:round; stroke-linejoin:round;">
</g>
<g style="fill:#840000; fill-opacity:0.0; 
stroke:#840000; stroke-width:60; stroke-opacity:1; 
stroke-linecap:round; stroke-linejoin:round;">
<path d="M53220 4050
L53540 4050
L53370 4240
L53440 4240
L53490 4260
L53510 4290
L53540 4340
L53540 4460
L53510 4510
L53490 4530
L53440 4560
L53300 4560
L53250 4530
L53220 4510
" />
</g>
<g style="fill:#840000; fill-opacity:0.0; 
stroke:#840000; stroke-width:100; stroke-opacity:1; 
stroke-linecap:round; stroke-linejoin:round;">
</g>
<g style="fill:#840000; fill-opacity:0.0; 
stroke:#840000; stroke-width:60; stroke-opacity:1; 
stroke-linecap:round; stroke-linejoin:round;">
<path d="M73170 4220
L73170 4560
" />
<path d="M73050 4020
L72930 4390
L73240 4390
" />
</g>
<g style="fill:#840000; fill-opacity:0.0; 
stroke:#840000; stroke-width:100; stroke-opacity:1; 
stroke-linecap:round; stroke-linejoin:round;">
</g>
<g style="fill:#840000; fill-opacity:0.0; 
stroke:#840000; stroke-width:60; stroke-opacity:1; 
stroke-linecap:round; stroke-linejoin:round;">
<path d="M92880 4050
L92640 4050
L92620 4290
L92640 4260
L92690 4240
L92810 4240
L92860 4260
L92880 4290
L92910 4340
L92910 4460
L92880 4510
L92860 4530
L92810 4560
L92690 4560
L92640 4530
L92620 4510
" />
</g>
<g style="fill:#840000; fill-opacity:0.0; 
stroke:#840000; stroke-width:100; stroke-opacity:1; 
stroke-linecap:round; stroke-linejoin:round;">
</g>
<g style="fill:#840000; fill-opacity:0.0; 
stroke:#840000; stroke-width:60; stroke-opacity:1; 
stroke-linecap:round; stroke-linejoin:round;">
<path d="M112540 4050
L112440 4050
L112390 4070
L112370 4090
L112320 4170
L112300 4260
L112300 4460
L112320 4510
L112350 4530
L112390 4560
L112490 4560
L112540 4530
L112560 4510
L112590 4460
L112590 4340
L112560 4290
L112540 4260
L112490 4240
L112390 4240
L112350 4260
L112320 4290
L112300 4340
" />
</g>
<g style="fill:#840000; fill-opacity:0.0; 
stroke:#840000; stroke-width:100; stroke-opacity:1; 
stroke-linecap:round; stroke-linejoin:round;">
</g>
<g style="fill:#840000; fill-opacity:0.0; 
stroke:#840000; stroke-width:60; stroke-opacity:1; 
stroke-linecap:round; stroke-linejoin:round;">
<path d="M23620 77960
L23620 78740
" />
</g>
<g style="fill:#840000; fill-opacity:0.0; 
stroke:#840000; stroke-width:100; stroke-opacity:1; 
stroke-linecap:round; stroke-linejoin:round;">
</g>
<g style="fill:#840000; fill-opacity:0.0; 
stroke:#840000; stroke-width:60; stroke-opacity:1; 
stroke-linecap:round; stroke-linejoin:round;">
<path d="M43310 77960
L43310 78740
" />
</g>
<g style="fill:#840000; fill-opacity:0.0; 
stroke:#840000; stroke-width:100; stroke-opacity:1; 
stroke-linecap:round; stroke-linejoin:round;">
</g>
<g style="fill:#840000; fill-opacity:0.0; 
stroke:#840000; stroke-width:60; stroke-opacity:1; 
stroke-linecap:round; stroke-linejoin:round;">
<path d="M62990 77960
L62990 78740
" />
</g>
<g style="fill:#840000; fill-opacity:0.0; 
stroke:#840000; stroke-width:100; stroke-opacity:1; 
stroke-linecap:round; stroke-linejoin:round;">
</g>
<g style="fill:#840000; fill-opacity:0.0; 
stroke:#840000; stroke-width:60; stroke-opacity:1; 
stroke-linecap:round; stroke-linejoin:round;">
<path d="M82680 77960
L82680 78740
" />
</g>
<g style="fill:#840000; fill-opacity:0.0; 
stroke:#840000; stroke-width:100; stroke-opacity:1; 
stroke-linecap:round; stroke-linejoin:round;">
</g>
<g style="fill:#840000; fill-opacity:0.0; 
stroke:#840000; stroke-width:60; stroke-opacity:1; 
stroke-linecap:round; stroke-linejoin:round;">
<path d="M102360 77960
L102360 78740
" />
</g>
<g style="fill:#840000; fill-opacity:0.0; 
stroke:#840000; stroke-width:100; stroke-opacity:1; 
stroke-linecap:round; stroke-linejoin:round;">
</g>
<g style="fill:#840000; fill-opacity:0.0; 
stroke:#840000; stroke-width:60; stroke-opacity:1; 
stroke-linecap:round; stroke-linejoin:round;">
<path d="M14170 78580
L13880 78580
" />
<path d="M14020 78580
L14020 78070
L13970 78140
L13930 78190
L13880 78210
" />
</g>
<g style="fill:#840000; fill-opacity:0.0; 
stroke:#840000; stroke-width:100; stroke-opacity:1; 
stroke-linecap:round; stroke-linejoin:round;">
</g>
<g style="fill:#840000; fill-opacity:0.0; 
stroke:#840000; stroke-width:60; stroke-opacity:1; 
stroke-linecap:round; stroke-linejoin:round;">
<path d="M33560 78110
L33580 78090
L33630 78070
L33750 78070
L33800 78090
L33820 78110
L33850 78160
L33850 78210
L33820 78280
L33530 78580
L33850 78580
" />
</g>
<g style="fill:#840000; fill-opacity:0.0; 
stroke:#840000; stroke-width:100; stroke-opacity:1; 
stroke-linecap:round; stroke-linejoin:round;">
</g>
<g style="fill:#840000; fill-opacity:0.0; 
stroke:#840000; stroke-width:60; stroke-opacity:1; 
stroke-linecap:round; stroke-linejoin:round;">
<path d="M53220 78070
L53540 78070
L53370 78260
L53440 78260
L53490 78280
L53510 78310
L53540 78360
L53540 78480
L53510 78530
L53490 78550
L53440 78580
L53300 78580
L53250 78550
L53220 78530
" />
</g>
<g style="fill:#840000; fill-opacity:0.0; 
stroke:#840000; stroke-width:100; stroke-opacity:1; 
stroke-linecap:round; stroke-linejoin:round;">
</g>
<g style="fill:#840000; fill-opacity:0.0; 
stroke:#840000; stroke-width:60; stroke-opacity:1; 
stroke-linecap:round; stroke-linejoin:round;">
<path d="M73170 78240
L73170 78580
" />
<path d="M73050 78040
L72930 78410
L73240 78410
" />
</g>
<g style="fill:#840000; fill-opacity:0.0; 
stroke:#840000; stroke-width:100; stroke-opacity:1; 
stroke-linecap:round; stroke-linejoin:round;">
</g>
<g style="fill:#840000; fill-opacity:0.0; 
stroke:#840000; stroke-width:60; stroke-opacity:1; 
stroke-linecap:round; stroke-linejoin:round;">
<path d="M92880 78070
L92640 78070
L92620 78310
L92640 78280
L92690 78260
L92810 78260
L92860 78280
L92880 78310
L92910 78360
L92910 78480
L92880 78530
L92860 78550
L92810 78580
L92690 78580
L92640 78550
L92620 78530
" />
</g>
<g style="fill:#840000; fill-opacity:0.0; 
stroke:#840000; stroke-width:100; stroke-opacity:1; 
stroke-linecap:round; stroke-linejoin:round;">
</g>
<g style="fill:#840000; fill-opacity:0.0; 
stroke:#840000; stroke-width:60; stroke-opacity:1; 
stroke-linecap:round; stroke-linejoin:round;">
<path d="M112540 78070
L112440 78070
L112390 78090
L112370 78110
L112320 78190
L112300 78280
L112300 78480
L112320 78530
L112350 78550
L112390 78580
L112490 78580
L112540 78550
L112560 78530
L112590 78480
L112590 78360
L112560 78310
L112540 78280
L112490 78260
L112390 78260
L112350 78280
L112320 78310
L112300 78360
" />
</g>
<g style="fill:#840000; fill-opacity:0.0; 
stroke:#840000; stroke-width:100; stroke-opacity:1; 
stroke-linecap:round; stroke-linejoin:round;">
</g>
<g style="fill:#840000; fill-opacity:0.0; 
stroke:#840000; stroke-width:60; stroke-opacity:1; 
stroke-linecap:round; stroke-linejoin:round;">
<path d="M3940 23620
L4720 23620
" />
</g>
<g style="fill:#840000; fill-opacity:0.0; 
stroke:#840000; stroke-width:100; stroke-opacity:1; 
stroke-linecap:round; stroke-linejoin:round;">
</g>
<g style="fill:#840000; fill-opacity:0.0; 
stroke:#840000; stroke-width:60; stroke-opacity:1; 
stroke-linecap:round; stroke-linejoin:round;">
<path d="M3940 43310
L4720 43310
" />
</g>
<g style="fill:#840000; fill-opacity:0.0; 
stroke:#840000; stroke-width:100; stroke-opacity:1; 
stroke-linecap:round; stroke-linejoin:round;">
</g>
<g style="fill:#840000; fill-opacity:0.0; 
stroke:#840000; stroke-width:60; stroke-opacity:1; 
stroke-linecap:round; stroke-linejoin:round;">
<path d="M3940 62990
L4720 62990
" />
</g>
<g style="fill:#840000; fill-opacity:0.0; 
stroke:#840000; stroke-width:100; stroke-opacity:1; 
stroke-linecap:round; stroke-linejoin:round;">
</g>
<g style="fill:#840000; fill-opacity:0.0; 
stroke:#840000; stroke-width:60; stroke-opacity:1; 
stroke-linecap:round; stroke-linejoin:round;">
<path d="M4210 13860
L4450 13860
" />
<path d="M4160 14010
L4330 13500
L4500 14010
" />
</g>
<g style="fill:#840000; fill-opacity:0.0; 
stroke:#840000; stroke-width:100; stroke-opacity:1; 
stroke-linecap:round; stroke-linejoin:round;">
</g>
<g style="fill:#840000; fill-opacity:0.0; 
stroke:#840000; stroke-width:60; stroke-opacity:1; 
stroke-linecap:round; stroke-linejoin:round;">
<path d="M4370 33420
L4440 33440
L4470 33470
L4490 33520
L4490 33590
L4470 33640
L4440 33660
L4400 33690
L4200 33690
L4200 33180
L4370 33180
L4420 33200
L4440 33220
L4470 33270
L4470 33320
L4440 33370
L4420 33390
L4370 33420
L4200 33420
" />
</g>
<g style="fill:#840000; fill-opacity:0.0; 
stroke:#840000; stroke-width:100; stroke-opacity:1; 
stroke-linecap:round; stroke-linejoin:round;">
</g>
<g style="fill:#840000; fill-opacity:0.0; 
stroke:#840000; stroke-width:60; stroke-opacity:1; 
stroke-linecap:round; stroke-linejoin:round;">
<path d="M4490 53330
L4470 53350
L4400 53380
L4350 53380
L4270 53350
L4230 53300
L4200 53250
L4180 53160
L4180 53080
L4200 52990
L4230 52940
L4270 52890
L4350 52870
L4400 52870
L4470 52890
L4490 52910
" />
</g>
<g style="fill:#840000; fill-opacity:0.0; 
stroke:#840000; stroke-width:100; stroke-opacity:1; 
stroke-linecap:round; stroke-linejoin:round;">
</g>
<g style="fill:#840000; fill-opacity:0.0; 
stroke:#840000; stroke-width:60; stroke-opacity:1; 
stroke-linecap:round; stroke-linejoin:round;">
<path d="M4200 73060
L4200 72550
L4320 72550
L4400 72570
L4440 72620
L4470 72670
L4490 72760
L4490 72840
L4470 72930
L4440 72980
L4400 73030
L4320 73060
L4200 73060
" />
</g>
<g style="fill:#840000; fill-opacity:0.0; 
stroke:#840000; stroke-width:100; stroke-opacity:1; 
stroke-linecap:round; stroke-linejoin:round;">
</g>
<g style="fill:#840000; fill-opacity:0.0; 
stroke:#840000; stroke-width:60; stroke-opacity:1; 
stroke-linecap:round; stroke-linejoin:round;">
<path d="M112990 23620
L112210 23620
" />
</g>
<g style="fill:#840000; fill-opacity:0.0; 
stroke:#840000; stroke-width:100; stroke-opacity:1; 
stroke-linecap:round; stroke-linejoin:round;">
</g>
<g style="fill:#840000; fill-opacity:0.0; 
stroke:#840000; stroke-width:60; stroke-opacity:1; 
stroke-linecap:round; stroke-linejoin:round;">
<path d="M112990 43310
L112210 43310
" />
</g>
<g style="fill:#840000; fill-opacity:0.0; 
stroke:#840000; stroke-width:100; stroke-opacity:1; 
stroke-linecap:round; stroke-linejoin:round;">
</g>
<g style="fill:#840000; fill-opacity:0.0; 
stroke:#840000; stroke-width:60; stroke-opacity:1; 
stroke-linecap:round; stroke-linejoin:round;">
<path d="M112990 62990
L112210 62990
" />
</g>
<g style="fill:#840000; fill-opacity:0.0; 
stroke:#840000; stroke-width:100; stroke-opacity:1; 
stroke-linecap:round; stroke-linejoin:round;">
</g>
<g style="fill:#840000; fill-opacity:0.0; 
stroke:#840000; stroke-width:60; stroke-opacity:1; 
stroke-linecap:round; stroke-linejoin:round;">
<path d="M112480 13860
L112720 13860
" />
<path d="M112430 14010
L112600 13500
L112770 14010
" />
</g>
<g style="fill:#840000; fill-opacity:0.0; 
stroke:#840000; stroke-width:100; stroke-opacity:1; 
stroke-linecap:round; stroke-linejoin:round;">
</g>
<g style="fill:#840000; fill-opacity:0.0; 
stroke:#840000; stroke-width:60; stroke-opacity:1; 
stroke-linecap:round; stroke-linejoin:round;">
<path d="M112640 33420
L112710 33440
L112740 33470
L112760 33520
L112760 33590
L112740 33640
L112710 33660
L112670 33690
L112470 33690
L112470 33180
L112640 33180
L112690 33200
L112710 33220
L112740 33270
L112740 33320
L112710 33370
L112690 33390
L112640 33420
L112470 33420
" />
</g>
<g style="fill:#840000; fill-opacity:0.0; 
stroke:#840000; stroke-width:100; stroke-opacity:1; 
stroke-linecap:round; stroke-linejoin:round;">
</g>
<g style="fill:#840000; fill-opacity:0.0; 
stroke:#840000; stroke-width:60; stroke-opacity:1; 
stroke-linecap:round; stroke-linejoin:round;">
<path d="M112760 53330
L112740 53350
L112670 53380
L112620 53380
L112540 53350
L112500 53300
L112470 53250
L112450 53160
L112450 53080
L112470 52990
L112500 52940
L112540 52890
L112620 52870
L112670 52870
L112740 52890
L112760 52910
" />
</g>
<g style="fill:#840000; fill-opacity:0.0; 
stroke:#840000; stroke-width:100; stroke-opacity:1; 
stroke-linecap:round; stroke-linejoin:round;">
</g>
<g style="fill:#840000; fill-opacity:0.0; 
stroke:#840000; stroke-width:60; stroke-opacity:1; 
stroke-linecap:round; stroke-linejoin:round;">
<path d="M112470 73060
L112470 72550
L112590 72550
L112670 72570
L112710 72620
L112740 72670
L112760 72760
L112760 72840
L112740 72930
L112710 72980
L112670 73030
L112590 73060
L112470 73060
" />
</g>
<g style="fill:#840000; fill-opacity:0.0; 
stroke:#840000; stroke-width:100; stroke-opacity:1; 
stroke-linecap:round; stroke-linejoin:round;">
</g>
<g style="fill:#840000; fill-opacity:0.0; 
stroke:#840000; stroke-width:60; stroke-opacity:1; 
stroke-linecap:round; stroke-linejoin:round;">
<path d="M78880 76290
L78880 75700
L79020 75700
L79110 75730
L79160 75790
L79190 75840
L79220 75950
L79220 76040
L79190 76150
L79160 76210
L79110 76260
L79020 76290
L78880 76290
" />
<path d="M79720 76290
L79720 75980
L79700 75930
L79640 75900
L79530 75900
L79470 75930
" />
<path d="M79720 76260
L79670 76290
L79530 76290
L79470 76260
L79440 76210
L79440 76150
L79470 76100
L79530 76070
L79670 76070
L79720 76040
" />
<path d="M79920 75900
L80140 75900
" />
<path d="M80000 75700
L80000 76210
L80030 76260
L80080 76290
L80140 76290
" />
<path d="M80570 76260
L80510 76290
L80400 76290
L80340 76260
L80310 76210
L80310 75980
L80340 75930
L80400 75900
L80510 75900
L80570 75930
L80590 75980
L80590 76040
L80310 76100
" />
<path d="M80850 76240
L80880 76260
L80850 76290
L80820 76260
L80850 76240
L80850 76290
" />
<path d="M80850 75930
L80880 75950
L80850 75980
L80820 75950
L80850 75930
L80850 75980
" />
</g>
<g style="fill:#840000; fill-opacity:0.0; 
stroke:#840000; stroke-width:100; stroke-opacity:1; 
stroke-linecap:round; stroke-linejoin:round;">
</g>
<g style="fill:#840000; fill-opacity:0.0; 
stroke:#840000; stroke-width:60; stroke-opacity:1; 
stroke-linecap:round; stroke-linejoin:round;">
<path d="M69690 76580
L112210 76580
" />
</g>
<g style="fill:#840000; fill-opacity:0.0; 
stroke:#840000; stroke-width:100; stroke-opacity:1; 
stroke-linecap:round; stroke-linejoin:round;">
</g>
<g style="fill:#840000; fill-opacity:0.0; 
stroke:#840000; stroke-width:60; stroke-opacity:1; 
stroke-linecap:round; stroke-linejoin:round;">
<path d="M70220 77390
L70220 76800
" />
<path d="M70560 77390
L70300 77050
" />
<path d="M70560 76800
L70220 77140
" />
<path d="M70810 77390
L70810 77000
" />
<path d="M70810 76800
L70780 76830
L70810 76860
L70840 76830
L70810 76800
L70810 76860
" />
<path d="M71430 77340
L71400 77360
L71320 77390
L71260 77390
L71170 77360
L71120 77310
L71090 77250
L71060 77140
L71060 77050
L71090 76940
L71120 76890
L71170 76830
L71260 76800
L71320 76800
L71400 76830
L71430 76860
" />
<path d="M71930 77390
L71930 77080
L71910 77030
L71850 77000
L71740 77000
L71680 77030
" />
<path d="M71930 77360
L71880 77390
L71740 77390
L71680 77360
L71650 77310
L71650 77250
L71680 77200
L71740 77170
L71880 77170
L71930 77140
" />
<path d="M72460 77390
L72460 76800
" />
<path d="M72460 77360
L72410 77390
L72290 77390
L72240 77360
L72210 77340
L72180 77280
L72180 77110
L72210 77050
L72240 77030
L72290 77000
L72410 77000
L72460 77030
" />
<path d="M73190 77080
L73390 77080
" />
<path d="M73470 77390
L73190 77390
L73190 76800
L73470 76800
" />
<path d="M73720 77340
L73750 77360
L73720 77390
L73690 77360
L73720 77340
L73720 77390
" />
<path d="M74000 77390
L74000 76800
L74140 76800
L74230 76830
L74280 76890
L74310 76940
L74340 77050
L74340 77140
L74310 77250
L74280 77310
L74230 77360
L74140 77390
L74000 77390
" />
<path d="M74590 77340
L74620 77360
L74590 77390
L74560 77360
L74590 77340
L74590 77390
" />
<path d="M74840 77220
L75120 77220
" />
<path d="M74790 77390
L74980 76800
L75180 77390
" />
<path d="M75380 77340
L75410 77360
L75380 77390
L75350 77360
L75380 77340
L75380 77390
" />
<path d="M76560 77390
L76560 76800
" />
<path d="M76620 77170
L76790 77390
" />
<path d="M76790 77000
L76560 77220
" />
<path d="M77040 77390
L77040 77000
" />
<path d="M77040 76800
L77010 76830
L77040 76860
L77070 76830
L77040 76800
L77040 76860
" />
<path d="M77570 77360
L77520 77390
L77400 77390
L77350 77360
L77320 77340
L77290 77280
L77290 77110
L77320 77050
L77350 77030
L77400 77000
L77520 77000
L77570 77030
" />
<path d="M78080 77390
L78080 77080
L78060 77030
L78000 77000
L77890 77000
L77830 77030
" />
<path d="M78080 77360
L78030 77390
L77890 77390
L77830 77360
L77800 77310
L77800 77250
L77830 77200
L77890 77170
L78030 77170
L78080 77140
" />
<path d="M78610 77390
L78610 76800
" />
<path d="M78610 77360
L78560 77390
L78440 77390
L78390 77360
L78360 77340
L78330 77280
L78330 77110
L78360 77050
L78390 77030
L78440 77000
L78560 77000
L78610 77030
" />
<path d="M79590 77000
L79590 77390
" />
<path d="M79450 76770
L79310 77200
L79680 77200
" />
<path d="M79900 77340
L79930 77360
L79900 77390
L79870 77360
L79900 77340
L79900 77390
" />
<path d="M80290 76800
L80350 76800
L80410 76830
L80430 76860
L80460 76910
L80490 77030
L80490 77170
L80460 77280
L80430 77340
L80410 77360
L80350 77390
L80290 77390
L80240 77360
L80210 77340
L80180 77280
L80150 77170
L80150 77030
L80180 76910
L80210 76860
L80240 76830
L80290 76800
" />
<path d="M80740 77340
L80770 77360
L80740 77390
L80710 77360
L80740 77340
L80740 77390
" />
<path d="M81270 76800
L81160 76800
L81100 76830
L81080 76860
L81020 76940
L80990 77050
L80990 77280
L81020 77340
L81050 77360
L81100 77390
L81220 77390
L81270 77360
L81300 77340
L81330 77280
L81330 77140
L81300 77080
L81270 77050
L81220 77030
L81100 77030
L81050 77050
L81020 77080
L80990 77140
" />
</g>
<g style="fill:#840000; fill-opacity:0.0; 
stroke:#840000; stroke-width:100; stroke-opacity:1; 
stroke-linecap:round; stroke-linejoin:round;">
</g>
<g style="fill:#840000; fill-opacity:0.0; 
stroke:#840000; stroke-width:60; stroke-opacity:1; 
stroke-linecap:round; stroke-linejoin:round;">
<path d="M69690 75400
L112210 75400
" />
</g>
<g style="fill:#840000; fill-opacity:0.0; 
stroke:#840000; stroke-width:100; stroke-opacity:1; 
stroke-linecap:round; stroke-linejoin:round;">
</g>
<g style="fill:#840000; fill-opacity:0.0; 
stroke:#840000; stroke-width:120; stroke-opacity:1; 
stroke-linecap:round; stroke-linejoin:round;">
<path d="M104020 76290
L103820 76010
" />
<path d="M103680 76290
L103680 75700
L103910 75700
L103960 75730
L103990 75760
L104020 75810
L104020 75900
L103990 75950
L103960 75980
L103910 76010
L103680 76010
" />
<path d="M104500 76260
L104440 76290
L104330 76290
L104270 76260
L104240 76210
L104240 75980
L104270 75930
L104330 75900
L104440 75900
L104500 75930
L104520 75980
L104520 76040
L104240 76100
" />
<path d="M104720 75900
L104860 76290
L105010 75900
" />
<path d="M105230 76240
L105260 76260
L105230 76290
L105200 76260
L105230 76240
L105230 76290
" />
<path d="M105230 75930
L105260 75950
L105230 75980
L105200 75950
L105230 75930
L105230 75980
" />
</g>
<g style="fill:#840000; fill-opacity:0.0; 
stroke:#840000; stroke-width:100; stroke-opacity:1; 
stroke-linecap:round; stroke-linejoin:round;">
</g>
<g style="fill:#840000; fill-opacity:0.0; 
stroke:#840000; stroke-width:60; stroke-opacity:1; 
stroke-linecap:round; stroke-linejoin:round;">
<path d="M70190 76260
L70280 76290
L70420 76290
L70470 76260
L70500 76240
L70530 76180
L70530 76120
L70500 76070
L70470 76040
L70420 76010
L70300 75980
L70250 75950
L70220 75930
L70190 75870
L70190 75810
L70220 75760
L70250 75730
L70300 75700
L70450 75700
L70530 75730
" />
<path d="M70780 76290
L70780 75900
" />
<path d="M70780 75700
L70750 75730
L70780 75760
L70810 75730
L70780 75700
L70780 75760
" />
<path d="M71000 75900
L71310 75900
L71000 76290
L71310 76290
" />
<path d="M71770 76260
L71710 76290
L71600 76290
L71540 76260
L71510 76210
L71510 75980
L71540 75930
L71600 75900
L71710 75900
L71770 75930
L71790 75980
L71790 76040
L71510 76100
" />
<path d="M72050 76240
L72080 76260
L72050 76290
L72020 76260
L72050 76240
L72050 76290
" />
<path d="M72050 75930
L72080 75950
L72050 75980
L72020 75950
L72050 75930
L72050 75980
" />
<path d="M72750 76120
L73030 76120
" />
<path d="M72700 76290
L72890 75700
L73090 76290
" />
<path d="M73540 75900
L73540 76290
" />
<path d="M73400 75670
L73260 76100
L73630 76100
" />
</g>
<g style="fill:#840000; fill-opacity:0.0; 
stroke:#840000; stroke-width:100; stroke-opacity:1; 
stroke-linecap:round; stroke-linejoin:round;">
</g>
<g style="fill:#840000; fill-opacity:0.0; 
stroke:#840000; stroke-width:60; stroke-opacity:1; 
stroke-linecap:round; stroke-linejoin:round;">
<path d="M103680 77390
L103680 76800
" />
<path d="M104210 77390
L104210 76800
" />
<path d="M104210 77360
L104160 77390
L104040 77390
L103990 77360
L103960 77340
L103930 77280
L103930 77110
L103960 77050
L103990 77030
L104040 77000
L104160 77000
L104210 77030
" />
<path d="M104490 77340
L104520 77360
L104490 77390
L104460 77360
L104490 77340
L104490 77390
" />
<path d="M104490 77030
L104520 77050
L104490 77080
L104460 77050
L104490 77030
L104490 77080
" />
<path d="M105530 77390
L105190 77390
" />
<path d="M105360 77390
L105360 76800
L105300 76890
L105250 76940
L105190 76970
" />
<path d="M106200 76770
L105700 77530
" />
<path d="M106710 77390
L106370 77390
" />
<path d="M106540 77390
L106540 76800
L106480 76890
L106430 76940
L106370 76970
" />
</g>
<g style="fill:#840000; fill-opacity:0.0; 
stroke:#840000; stroke-width:100; stroke-opacity:1; 
stroke-linecap:round; stroke-linejoin:round;">
</g>
<g style="fill:#840000; fill-opacity:0.0; 
stroke:#840000; stroke-width:60; stroke-opacity:1; 
stroke-linecap:round; stroke-linejoin:round;">
<path d="M69690 73820
L112210 73820
" />
</g>
<g style="fill:#840000; fill-opacity:0.0; 
stroke:#840000; stroke-width:100; stroke-opacity:1; 
stroke-linecap:round; stroke-linejoin:round;">
</g>
<g style="fill:#840000; fill-opacity:0.0; 
stroke:#840000; stroke-width:160; stroke-opacity:1; 
stroke-linecap:round; stroke-linejoin:round;">
<path d="M70260 74090
L70710 74090
" />
<path d="M70390 74880
L70480 74090
" />
<path d="M70880 74880
L70940 74360
" />
<path d="M70970 74090
L70930 74130
L70960 74170
L71010 74130
L70970 74090
L70960 74170
" />
<path d="M71210 74360
L71510 74360
" />
<path d="M71350 74090
L71270 74770
L71300 74840
L71370 74880
L71450 74880
" />
<path d="M71820 74880
L71750 74840
L71720 74770
L71800 74090
" />
<path d="M72420 74840
L72340 74880
L72190 74880
L72120 74840
L72090 74770
L72130 74470
L72180 74390
L72250 74360
L72400 74360
L72480 74390
L72510 74470
L72500 74540
L72110 74620
" />
<path d="M72800 74810
L72840 74840
L72800 74880
L72760 74840
L72800 74810
L72800 74880
" />
<path d="M72860 74390
L72890 74430
L72850 74470
L72810 74430
L72860 74390
L72850 74470
" />
</g>
<g style="fill:#840000; fill-opacity:0.0; 
stroke:#840000; stroke-width:100; stroke-opacity:1; 
stroke-linecap:round; stroke-linejoin:round;">
</g>
<g style="fill:#840000; fill-opacity:0.0; 
stroke:#840000; stroke-width:60; stroke-opacity:1; 
stroke-linecap:round; stroke-linejoin:round;">
<path d="M70420 73060
L70220 73060
" />
<path d="M70220 73370
L70220 72780
L70500 72780
" />
<path d="M70730 73370
L70730 72980
" />
<path d="M70730 72780
L70700 72810
L70730 72840
L70760 72810
L70730 72780
L70730 72840
" />
<path d="M71090 73370
L71040 73340
L71010 73290
L71010 72780
" />
<path d="M71550 73340
L71490 73370
L71380 73370
L71320 73340
L71290 73290
L71290 73060
L71320 73010
L71380 72980
L71490 72980
L71550 73010
L71570 73060
L71570 73120
L71290 73180
" />
<path d="M71830 73320
L71860 73340
L71830 73370
L71800 73340
L71830 73320
L71830 73370
" />
<path d="M71830 73010
L71860 73030
L71830 73060
L71800 73030
L71830 73010
L71830 73060
" />
<path d="M72900 73370
L72700 73090
" />
<path d="M72560 73370
L72560 72780
L72790 72780
L72840 72810
L72870 72840
L72900 72890
L72900 72980
L72870 73030
L72840 73060
L72790 73090
L72560 73090
" />
<path d="M73380 73340
L73320 73370
L73210 73370
L73150 73340
L73120 73290
L73120 73060
L73150 73010
L73210 72980
L73320 72980
L73380 73010
L73400 73060
L73400 73120
L73120 73180
" />
<path d="M73910 72980
L73910 73460
L73890 73510
L73860 73540
L73800 73570
L73720 73570
L73660 73540
" />
<path d="M73910 73340
L73860 73370
L73740 73370
L73690 73340
L73660 73320
L73630 73260
L73630 73090
L73660 73030
L73690 73010
L73740 72980
L73860 72980
L73910 73010
" />
<path d="M74440 72980
L74440 73370
" />
<path d="M74190 72980
L74190 73290
L74220 73340
L74270 73370
L74360 73370
L74420 73340
L74440 73320
" />
<path d="M74800 73370
L74750 73340
L74720 73290
L74720 72780
" />
<path d="M75280 73370
L75280 73060
L75260 73010
L75200 72980
L75090 72980
L75030 73010
" />
<path d="M75280 73340
L75230 73370
L75090 73370
L75030 73340
L75000 73290
L75000 73230
L75030 73180
L75090 73150
L75230 73150
L75280 73120
" />
<path d="M75810 73370
L75810 72780
" />
<path d="M75810 73340
L75760 73370
L75640 73370
L75590 73340
L75560 73320
L75530 73260
L75530 73090
L75560 73030
L75590 73010
L75640 72980
L75760 72980
L75810 73010
" />
<path d="M76170 73370
L76120 73340
L76090 73320
L76060 73260
L76060 73090
L76090 73030
L76120 73010
L76170 72980
L76260 72980
L76320 73010
L76340 73030
L76370 73090
L76370 73260
L76340 73320
L76320 73340
L76260 73370
L76170 73370
" />
<path d="M76620 73370
L76620 72980
" />
<path d="M76620 73090
L76650 73030
L76680 73010
L76730 72980
L76790 72980
" />
<path d="M76990 73150
L77440 73150
" />
<path d="M77970 73370
L77970 73060
L77950 73010
L77890 72980
L77780 72980
L77720 73010
" />
<path d="M77970 73340
L77920 73370
L77780 73370
L77720 73340
L77690 73290
L77690 73230
L77720 73180
L77780 73150
L77920 73150
L77970 73120
" />
<path d="M78500 73340
L78450 73370
L78330 73370
L78280 73340
L78250 73320
L78220 73260
L78220 73090
L78250 73030
L78280 73010
L78330 72980
L78450 72980
L78500 73010
" />
<path d="M78760 73150
L79210 73150
" />
<path d="M79740 72980
L79740 73370
" />
<path d="M79600 72750
L79460 73180
L79830 73180
" />
<path d="M80300 73370
L80300 73060
L80280 73010
L80220 72980
L80110 72980
L80050 73010
" />
<path d="M80300 73340
L80250 73370
L80110 73370
L80050 73340
L80020 73290
L80020 73230
L80050 73180
L80110 73150
L80250 73150
L80300 73120
" />
<path d="M80580 73320
L80610 73340
L80580 73370
L80550 73340
L80580 73320
L80580 73370
" />
<path d="M80830 73340
L80890 73370
L81000 73370
L81060 73340
L81090 73290
L81090 73260
L81060 73200
L81000 73180
L80920 73180
L80860 73150
L80830 73090
L80830 73060
L80860 73010
L80920 72980
L81000 72980
L81060 73010
" />
<path d="M81590 73340
L81540 73370
L81420 73370
L81370 73340
L81340 73320
L81310 73260
L81310 73090
L81340 73030
L81370 73010
L81420 72980
L81540 72980
L81590 73010
" />
<path d="M81850 73370
L81850 72780
" />
<path d="M82100 73370
L82100 73060
L82080 73010
L82020 72980
L81930 72980
L81880 73010
L81850 73030
" />
</g>
<g style="fill:#840000; fill-opacity:0.0; 
stroke:#840000; stroke-width:100; stroke-opacity:1; 
stroke-linecap:round; stroke-linejoin:round;">
</g>
<g style="fill:#840000; fill-opacity:0.0; 
stroke:#840000; stroke-width:60; stroke-opacity:1; 
stroke-linecap:round; stroke-linejoin:round;">
<path d="M69690 71460
L112210 71460
" />
</g>
<g style="fill:#840000; fill-opacity:0.0; 
stroke:#840000; stroke-width:100; stroke-opacity:1; 
stroke-linecap:round; stroke-linejoin:round;">
</g>
<g style="fill:#840000; fill-opacity:0.0; 
stroke:#840000; stroke-width:60; stroke-opacity:1; 
stroke-linecap:round; stroke-linejoin:round;">
<path d="M70190 72280
L70280 72310
L70420 72310
L70470 72280
L70500 72260
L70530 72200
L70530 72140
L70500 72090
L70470 72060
L70420 72030
L70300 72000
L70250 71970
L70220 71950
L70190 71890
L70190 71830
L70220 71780
L70250 71750
L70300 71720
L70450 71720
L70530 71750
" />
<path d="M70780 72310
L70780 71720
" />
<path d="M71030 72310
L71030 72000
L71010 71950
L70950 71920
L70860 71920
L70810 71950
L70780 71970
" />
<path d="M71540 72280
L71480 72310
L71370 72310
L71310 72280
L71280 72230
L71280 72000
L71310 71950
L71370 71920
L71480 71920
L71540 71950
L71560 72000
L71560 72060
L71280 72120
" />
<path d="M72050 72280
L71990 72310
L71880 72310
L71820 72280
L71790 72230
L71790 72000
L71820 71950
L71880 71920
L71990 71920
L72050 71950
L72070 72000
L72070 72060
L71790 72120
" />
<path d="M72250 71920
L72470 71920
" />
<path d="M72330 71720
L72330 72230
L72360 72280
L72410 72310
L72470 72310
" />
<path d="M72670 72260
L72700 72280
L72670 72310
L72640 72280
L72670 72260
L72670 72310
" />
<path d="M72670 71950
L72700 71970
L72670 72000
L72640 71970
L72670 71950
L72670 72000
" />
<path d="M73820 71690
L73320 72450
" />
</g>
<g style="fill:#840000; fill-opacity:0.0; 
stroke:#840000; stroke-width:100; stroke-opacity:1; 
stroke-linecap:round; stroke-linejoin:round;">
</g>
<g style="fill:#840000; fill-opacity:0.0; 
stroke:#840000; stroke-width:60; stroke-opacity:1; 
stroke-linecap:round; stroke-linejoin:round;">
<path d="M77560 75400
L77560 76580
" />
</g>
<g style="fill:#840000; fill-opacity:0.0; 
stroke:#840000; stroke-width:100; stroke-opacity:1; 
stroke-linecap:round; stroke-linejoin:round;">
</g>
<g style="fill:#840000; fill-opacity:0.0; 
stroke:#840000; stroke-width:60; stroke-opacity:1; 
stroke-linecap:round; stroke-linejoin:round;">
<path d="M102760 75400
L102760 77960
" />
</g>
<g style="fill:#840000; fill-opacity:0.0; 
stroke:#840000; stroke-width:0; stroke-opacity:1; 
stroke-linecap:round; stroke-linejoin:round;">
</g>
<g style="fill:#840000; fill-opacity:0.0; 
stroke:#840000; stroke-width:60; stroke-opacity:1; 
stroke-linecap:round; stroke-linejoin:round;">
<rect x="37300" y="27350" width="600" height="100" rx="0" />
<rect x="37300" y="28350" width="600" height="100" rx="0" />
<rect x="36900" y="26900" width="1000" height="2000" rx="0" />
<path d="M37900 28400
L39400 28400
" />
<path d="M38790 28280
L38510 28280
" />
<path d="M38650 28280
L38650 27780
L38600 27850
L38550 27900
L38510 27920
" />
<path d="M37900 27400
L39400 27400
" />
<path d="M38510 26820
L38530 26800
L38580 26780
L38700 26780
L38740 26800
L38770 26820
L38790 26870
L38790 26920
L38770 26990
L38480 27280
L38790 27280
" />
</g>
<g style="fill:#008484; fill-opacity:0.0; 
stroke:#008484; stroke-width:60; stroke-opacity:1; 
stroke-linecap:round; stroke-linejoin:round;">
<path d="M36020 29560
L36090 29590
L36210 29590
L36250 29560
L36280 29540
L36300 29490
L36300 29440
L36280 29400
L36250 29370
L36210 29350
L36110 29320
L36060 29300
L36040 29280
L36020 29230
L36020 29180
L36040 29130
L36060 29110
L36110 29090
L36230 29090
L36300 29110
" />
<path d="M36500 29440
L36730 29440
" />
<path d="M36450 29590
L36610 29090
L36780 29590
" />
<path d="M37190 29590
L36950 29590
L36950 29090
" />
<path d="M37350 29590
L37350 29090
" />
<path d="M37590 29590
L37590 29090
L37710 29090
L37780 29110
L37830 29160
L37850 29210
L37870 29300
L37870 29370
L37850 29470
L37830 29510
L37780 29560
L37710 29590
L37590 29590
" />
<path d="M38070 29440
L38300 29440
" />
<path d="M38020 29590
L38180 29090
L38350 29590
" />
<path d="M38780 29590
L38500 29590
" />
<path d="M38640 29590
L38640 29090
L38590 29160
L38540 29210
L38500 29230
" />
<path d="M35380 30240
L35360 30260
L35290 30290
L35240 30290
L35170 30260
L35120 30210
L35100 30170
L35080 30070
L35080 30000
L35100 29910
L35120 29860
L35170 29810
L35240 29790
L35290 29790
L35360 29810
L35380 29830
" />
<path d="M35690 29790
L35790 29790
L35840 29810
L35880 29860
L35910 29950
L35910 30120
L35880 30210
L35840 30260
L35790 30290
L35690 30290
L35650 30260
L35600 30210
L35580 30120
L35580 29950
L35600 29860
L35650 29810
L35690 29790
" />
<path d="M36120 30290
L36120 29790
L36400 30290
L36400 29790
" />
<path d="M36640 30290
L36640 29790
L36920 30290
L36920 29790
" />
<path d="M37040 30330
L37420 30330
" />
<path d="M37630 29790
L37680 29790
L37730 29810
L37750 29830
L37780 29880
L37800 29980
L37800 30100
L37780 30190
L37750 30240
L37730 30260
L37680 30290
L37630 30290
L37590 30260
L37560 30240
L37540 30190
L37520 30100
L37520 29980
L37540 29880
L37560 29830
L37590 29810
L37630 29790
" />
<path d="M38280 30290
L38000 30290
" />
<path d="M38140 30290
L38140 29790
L38090 29860
L38040 29910
L38000 29930
" />
<path d="M38450 29790
L38780 30290
" />
<path d="M38780 29790
L38450 30290
" />
<path d="M39070 29790
L39120 29790
L39170 29810
L39190 29830
L39220 29880
L39240 29980
L39240 30100
L39220 30190
L39190 30240
L39170 30260
L39120 30290
L39070 30290
L39030 30260
L39000 30240
L38980 30190
L38960 30100
L38960 29980
L38980 29880
L39000 29830
L39030 29810
L39070 29790
" />
<path d="M39440 29830
L39460 29810
L39510 29790
L39630 29790
L39670 29810
L39700 29830
L39720 29880
L39720 29930
L39700 30000
L39410 30290
L39720 30290
" />
</g>
<g style="fill:#008484; fill-opacity:0.0; 
stroke:#008484; stroke-width:0; stroke-opacity:1; 
stroke-linecap:round; stroke-linejoin:round;">
</g>
<g style="fill:#840000; fill-opacity:0.0; 
stroke:#840000; stroke-width:0; stroke-opacity:1; 
stroke-linecap:round; stroke-linejoin:round;">
</g>
<g style="fill:#840000; fill-opacity:0.0; 
stroke:#840000; stroke-width:100; stroke-opacity:1; 
stroke-linecap:round; stroke-linejoin:round;">
<rect x="44100" y="29500" width="800" height="2000" rx="0" />
</g>
<g style="fill:#840000; fill-opacity:0.0; 
stroke:#840000; stroke-width:60; stroke-opacity:1; 
stroke-linecap:round; stroke-linejoin:round;">
<path d="M44500 29500
L44500 29000
" />
<path d="M44500 31500
L44500 32000
" />
</g>
<g style="fill:#008484; fill-opacity:0.0; 
stroke:#008484; stroke-width:60; stroke-opacity:1; 
stroke-linecap:round; stroke-linejoin:round;">
<path d="M45560 30590
L45320 30750
" />
<path d="M45560 30870
L45060 30870
L45060 30680
L45080 30630
L45100 30610
L45150 30590
L45220 30590
L45270 30610
L45290 30630
L45320 30680
L45320 30870
" />
<path d="M45560 30110
L45560 30390
" />
<path d="M45560 30250
L45060 30250
L45130 30300
L45180 30350
L45200 30390
" />
<path d="M44260 31160
L44260 30850
L44450 31020
L44450 30940
L44470 30900
L44490 30870
L44540 30850
L44660 30850
L44710 30870
L44730 30900
L44760 30940
L44760 31090
L44730 31130
L44710 31160
" />
<path d="M44760 30630
L44260 30630
" />
<path d="M44760 30350
L44470 30560
" />
<path d="M44260 30350
L44540 30630
" />
<path d="M44260 30180
L44260 29870
L44450 30040
L44450 29960
L44470 29920
L44490 29890
L44540 29870
L44660 29870
L44710 29890
L44730 29920
L44760 29960
L44760 30110
L44730 30150
L44710 30180
" />
</g>
<g style="fill:#008484; fill-opacity:0.0; 
stroke:#008484; stroke-width:0; stroke-opacity:1; 
stroke-linecap:round; stroke-linejoin:round;">
</g>
<g style="fill:#840000; fill-opacity:0.0; 
stroke:#840000; stroke-width:0; stroke-opacity:1; 
stroke-linecap:round; stroke-linejoin:round;">
</g>
<g style="fill:#840000; fill-opacity:0.0; 
stroke:#840000; stroke-width:60; stroke-opacity:1; 
stroke-linecap:round; stroke-linejoin:round;">
<rect x="36900" y="42950" width="600" height="100" rx="0" />
<rect x="36900" y="43950" width="600" height="100" rx="0" />
<rect x="36500" y="42500" width="1000" height="2000" rx="0" />
<path d="M37500 44000
L39000 44000
" />
<path d="M38390 43880
L38110 43880
" />
<path d="M38250 43880
L38250 43380
L38200 43450
L38150 43500
L38110 43520
" />
<path d="M37500 43000
L39000 43000
" />
<path d="M38110 42420
L38130 42400
L38180 42380
L38300 42380
L38340 42400
L38370 42420
L38390 42470
L38390 42520
L38370 42590
L38080 42880
L38390 42880
" />
</g>
<g style="fill:#008484; fill-opacity:0.0; 
stroke:#008484; stroke-width:60; stroke-opacity:1; 
stroke-linecap:round; stroke-linejoin:round;">
<path d="M35270 44920
L35440 44920
" />
<path d="M35510 45190
L35270 45190
L35270 44690
L35510 44690
" />
<path d="M35720 45190
L35720 44690
L36000 45190
L36000 44690
" />
<path d="M36170 44690
L36450 44690
" />
<path d="M36310 45190
L36310 44690
" />
<path d="M36900 45190
L36740 44950
" />
<path d="M36620 45190
L36620 44690
L36810 44690
L36860 44710
L36880 44730
L36900 44780
L36900 44850
L36880 44900
L36860 44920
L36810 44950
L36620 44950
" />
<path d="M37100 45040
L37330 45040
" />
<path d="M37050 45190
L37210 44690
L37380 45190
" />
<path d="M37550 45190
L37550 44690
L37670 44690
L37740 44710
L37790 44760
L37810 44810
L37830 44900
L37830 44970
L37810 45070
L37790 45110
L37740 45160
L37670 45190
L37550 45190
" />
<path d="M38030 45040
L38260 45040
" />
<path d="M37980 45190
L38140 44690
L38310 45190
" />
<path d="M38740 45190
L38460 45190
" />
<path d="M38600 45190
L38600 44690
L38550 44760
L38500 44810
L38460 44830
" />
<path d="M34980 45940
L34960 45960
L34890 45990
L34840 45990
L34770 45960
L34720 45910
L34700 45870
L34680 45770
L34680 45700
L34700 45610
L34720 45560
L34770 45510
L34840 45490
L34890 45490
L34960 45510
L34980 45530
" />
<path d="M35290 45490
L35390 45490
L35440 45510
L35480 45560
L35510 45650
L35510 45820
L35480 45910
L35440 45960
L35390 45990
L35290 45990
L35250 45960
L35200 45910
L35180 45820
L35180 45650
L35200 45560
L35250 45510
L35290 45490
" />
<path d="M35720 45990
L35720 45490
L36000 45990
L36000 45490
" />
<path d="M36240 45990
L36240 45490
L36520 45990
L36520 45490
" />
<path d="M36640 46030
L37020 46030
" />
<path d="M37230 45490
L37280 45490
L37330 45510
L37350 45530
L37380 45580
L37400 45680
L37400 45800
L37380 45890
L37350 45940
L37330 45960
L37280 45990
L37230 45990
L37190 45960
L37160 45940
L37140 45890
L37120 45800
L37120 45680
L37140 45580
L37160 45530
L37190 45510
L37230 45490
" />
<path d="M37880 45990
L37600 45990
" />
<path d="M37740 45990
L37740 45490
L37690 45560
L37640 45610
L37600 45630
" />
<path d="M38050 45490
L38380 45990
" />
<path d="M38380 45490
L38050 45990
" />
<path d="M38670 45490
L38720 45490
L38770 45510
L38790 45530
L38820 45580
L38840 45680
L38840 45800
L38820 45890
L38790 45940
L38770 45960
L38720 45990
L38670 45990
L38630 45960
L38600 45940
L38580 45890
L38560 45800
L38560 45680
L38580 45580
L38600 45530
L38630 45510
L38670 45490
" />
<path d="M39040 45530
L39060 45510
L39110 45490
L39230 45490
L39270 45510
L39300 45530
L39320 45580
L39320 45630
L39300 45700
L39010 45990
L39320 45990
" />
</g>
<g style="fill:#008484; fill-opacity:0.0; 
stroke:#008484; stroke-width:0; stroke-opacity:1; 
stroke-linecap:round; stroke-linejoin:round;">
</g>
<g style="fill:#840000; fill-opacity:0.0; 
stroke:#840000; stroke-width:0; stroke-opacity:1; 
stroke-linecap:round; stroke-linejoin:round;">
</g>
<g style="fill:#840000; fill-opacity:0.0; 
stroke:#840000; stroke-width:60; stroke-opacity:1; 
stroke-linecap:round; stroke-linejoin:round;">
<rect x="40200" y="42800" width="1000" height="400" rx="0" />
<polyline fill="none;"
points="40200,43000
41200,43000
" /> 
<path d="M40200 43000
L39700 43000
" />
<path d="M41200 43000
L41700 43000
" />
</g>
<g style="fill:#008484; fill-opacity:0.0; 
stroke:#008484; stroke-width:60; stroke-opacity:1; 
stroke-linecap:round; stroke-linejoin:round;">
<path d="M40590 42390
L40420 42390
" />
<path d="M40420 42660
L40420 42160
L40660 42160
" />
<path d="M41110 42660
L40830 42660
" />
<path d="M40970 42660
L40970 42160
L40920 42230
L40870 42280
L40830 42300
" />
<path d="M39790 43590
L39620 43590
" />
<path d="M39620 43860
L39620 43360
L39860 43360
" />
<path d="M40260 43520
L40260 43860
" />
<path d="M40050 43520
L40050 43780
L40070 43830
L40120 43860
L40190 43860
L40240 43830
L40260 43810
" />
<path d="M40480 43830
L40520 43860
L40620 43860
L40670 43830
L40690 43780
L40690 43760
L40670 43710
L40620 43690
L40550 43690
L40500 43670
L40480 43620
L40480 43590
L40500 43550
L40550 43520
L40620 43520
L40670 43550
" />
<path d="M41090 43830
L41040 43860
L40950 43860
L40900 43830
L40880 43780
L40880 43590
L40900 43550
L40950 43520
L41040 43520
L41090 43550
L41110 43590
L41110 43640
L40880 43690
" />
</g>
<g style="fill:#008484; fill-opacity:0.0; 
stroke:#008484; stroke-width:0; stroke-opacity:1; 
stroke-linecap:round; stroke-linejoin:round;">
</g>
<g style="fill:#840000; fill-opacity:0.0; 
stroke:#840000; stroke-width:0; stroke-opacity:1; 
stroke-linecap:round; stroke-linejoin:round;">
</g>
<g style="fill:#840000; fill-opacity:0.0; 
stroke:#840000; stroke-width:60; stroke-opacity:1; 
stroke-linecap:round; stroke-linejoin:round;">
<rect x="44000" y="35500" width="1000" height="3000" rx="0" />
</g>
<g style="fill:#840000; fill-opacity:1.0; 
stroke:#840000; stroke-width:60; stroke-opacity:1; 
stroke-linecap:round; stroke-linejoin:round;">
<polyline style="fill-rule:evenodd;"
points="45000,37000
45200,36800
45200,37200
" /> 
</g>
<g style="fill:#840000; fill-opacity:0.0; 
stroke:#840000; stroke-width:60; stroke-opacity:1; 
stroke-linecap:round; stroke-linejoin:round;">
<path d="M44500 35500
L44500 34500
" />
<path d="M44380 34890
L44380 35110
" />
<path d="M44380 35000
L43980 35000
L44040 35040
L44080 35080
L44100 35110
" />
<path d="M45200 37000
L46000 37000
" />
<path d="M45490 36520
L45510 36500
L45540 36480
L45640 36480
L45680 36500
L45700 36520
L45710 36560
L45710 36600
L45700 36650
L45470 36880
L45710 36880
" />
<path d="M44500 38500
L44500 39500
" />
<path d="M43980 39130
L43980 38890
L44130 39020
L44130 38960
L44150 38920
L44170 38900
L44210 38890
L44300 38890
L44340 38900
L44360 38920
L44380 38960
L44380 39080
L44360 39110
L44340 39130
" />
</g>
<g style="fill:#008484; fill-opacity:0.0; 
stroke:#008484; stroke-width:60; stroke-opacity:1; 
stroke-linecap:round; stroke-linejoin:round;">
<path d="M43690 37370
L43190 37370
L43190 37180
L43210 37130
L43230 37110
L43280 37090
L43350 37090
L43400 37110
L43420 37130
L43450 37180
L43450 37370
" />
<path d="M43690 36610
L43690 36890
" />
<path d="M43690 36750
L43190 36750
L43260 36800
L43310 36850
L43330 36890
" />
<path d="M44230 37870
L44210 37850
L44190 37800
L44190 37680
L44210 37640
L44230 37610
L44280 37590
L44330 37590
L44400 37610
L44690 37900
L44690 37590
" />
<path d="M44230 37390
L44210 37370
L44190 37320
L44190 37200
L44210 37160
L44230 37130
L44280 37110
L44330 37110
L44400 37130
L44690 37420
L44690 37110
" />
<path d="M44190 36800
L44190 36750
L44210 36700
L44230 36680
L44280 36650
L44380 36630
L44500 36630
L44590 36650
L44640 36680
L44660 36700
L44690 36750
L44690 36800
L44660 36840
L44640 36870
L44590 36890
L44500 36910
L44380 36910
L44280 36890
L44230 36870
L44210 36840
L44190 36800
" />
<path d="M44690 36410
L44190 36410
" />
<path d="M44690 36130
L44400 36340
" />
<path d="M44190 36130
L44470 36410
" />
</g>
<g style="fill:#008484; fill-opacity:0.0; 
stroke:#008484; stroke-width:0; stroke-opacity:1; 
stroke-linecap:round; stroke-linejoin:round;">
</g>
<g style="fill:#840000; fill-opacity:0.0; 
stroke:#840000; stroke-width:0; stroke-opacity:1; 
stroke-linecap:round; stroke-linejoin:round;">
</g>
<g style="fill:#840000; fill-opacity:0.0; 
stroke:#840000; stroke-width:200; stroke-opacity:1; 
stroke-linecap:round; stroke-linejoin:round;">
<polyline fill="none;"
points="46700,41300
48300,41300
" /> 
<polyline fill="none;"
points="46700,40700
48300,40700
" /> 
</g>
<g style="fill:#840000; fill-opacity:0.0; 
stroke:#840000; stroke-width:60; stroke-opacity:1; 
stroke-linecap:round; stroke-linejoin:round;">
<path d="M47500 40600
L47500 39500
" />
<path d="M47500 41400
L47500 42500
" />
</g>
<g style="fill:#008484; fill-opacity:0.0; 
stroke:#008484; stroke-width:60; stroke-opacity:1; 
stroke-linecap:round; stroke-linejoin:round;">
<path d="M48150 40210
L48130 40230
L48060 40260
L48010 40260
L47940 40230
L47890 40180
L47870 40140
L47850 40040
L47850 39970
L47870 39880
L47890 39830
L47940 39780
L48010 39760
L48060 39760
L48130 39780
L48150 39800
" />
<path d="M48630 40260
L48350 40260
" />
<path d="M48490 40260
L48490 39760
L48440 39830
L48390 39880
L48350 39900
" />
<path d="M48130 42260
L47850 42260
" />
<path d="M47990 42260
L47990 41760
L47940 41830
L47890 41880
L47850 41900
" />
<path d="M48440 41760
L48490 41760
L48540 41780
L48560 41800
L48590 41850
L48610 41950
L48610 42070
L48590 42160
L48560 42210
L48540 42230
L48490 42260
L48440 42260
L48400 42230
L48370 42210
L48350 42160
L48330 42070
L48330 41950
L48350 41850
L48370 41800
L48400 41780
L48440 41760
" />
<path d="M48920 41760
L48970 41760
L49020 41780
L49040 41800
L49070 41850
L49090 41950
L49090 42070
L49070 42160
L49040 42210
L49020 42230
L48970 42260
L48920 42260
L48880 42230
L48850 42210
L48830 42160
L48810 42070
L48810 41950
L48830 41850
L48850 41800
L48880 41780
L48920 41760
" />
<path d="M49690 41920
L49690 42260
" />
<path d="M49690 41970
L49710 41950
L49760 41920
L49830 41920
L49880 41950
L49900 41990
L49900 42260
" />
<path d="M50070 41920
L50260 41920
" />
<path d="M50140 42260
L50140 41830
L50160 41780
L50210 41760
L50260 41760
" />
<path d="M51020 41920
L51020 42260
" />
<path d="M50900 41730
L50790 42090
L51090 42090
" />
<path d="M51380 41760
L51430 41760
L51480 41780
L51500 41800
L51530 41850
L51550 41950
L51550 42070
L51530 42160
L51500 42210
L51480 42230
L51430 42260
L51380 42260
L51340 42230
L51310 42210
L51290 42160
L51270 42070
L51270 41950
L51290 41850
L51310 41800
L51340 41780
L51380 41760
" />
<path d="M51860 41760
L51910 41760
L51960 41780
L51980 41800
L52010 41850
L52030 41950
L52030 42070
L52010 42160
L51980 42210
L51960 42230
L51910 42260
L51860 42260
L51820 42230
L51790 42210
L51770 42160
L51750 42070
L51750 41950
L51770 41850
L51790 41800
L51820 41780
L51860 41760
" />
<path d="M52180 41760
L52340 42260
L52510 41760
" />
</g>
<g style="fill:#008484; fill-opacity:0.0; 
stroke:#008484; stroke-width:0; stroke-opacity:1; 
stroke-linecap:round; stroke-linejoin:round;">
</g>
<g style="fill:#840000; fill-opacity:0.0; 
stroke:#840000; stroke-width:0; stroke-opacity:1; 
stroke-linecap:round; stroke-linejoin:round;">
</g>
<g style="fill:#840000; fill-opacity:0.0; 
stroke:#840000; stroke-width:200; stroke-opacity:1; 
stroke-linecap:round; stroke-linejoin:round;">
<polyline fill="none;"
points="52700,41300
54300,41300
" /> 
<polyline fill="none;"
points="52700,40700
54300,40700
" /> 
</g>
<g style="fill:#840000; fill-opacity:0.0; 
stroke:#840000; stroke-width:60; stroke-opacity:1; 
stroke-linecap:round; stroke-linejoin:round;">
<path d="M53500 40600
L53500 39500
" />
<path d="M53500 41400
L53500 42500
" />
</g>
<g style="fill:#008484; fill-opacity:0.0; 
stroke:#008484; stroke-width:60; stroke-opacity:1; 
stroke-linecap:round; stroke-linejoin:round;">
<path d="M54150 40210
L54130 40230
L54060 40260
L54010 40260
L53940 40230
L53890 40180
L53870 40140
L53850 40040
L53850 39970
L53870 39880
L53890 39830
L53940 39780
L54010 39760
L54060 39760
L54130 39780
L54150 39800
" />
<path d="M54350 39800
L54370 39780
L54420 39760
L54540 39760
L54580 39780
L54610 39800
L54630 39850
L54630 39900
L54610 39970
L54320 40260
L54630 40260
" />
<path d="M54130 42260
L53850 42260
" />
<path d="M53990 42260
L53990 41760
L53940 41830
L53890 41880
L53850 41900
" />
<path d="M54440 41760
L54490 41760
L54540 41780
L54560 41800
L54590 41850
L54610 41950
L54610 42070
L54590 42160
L54560 42210
L54540 42230
L54490 42260
L54440 42260
L54400 42230
L54370 42210
L54350 42160
L54330 42070
L54330 41950
L54350 41850
L54370 41800
L54400 41780
L54440 41760
" />
<path d="M54920 41760
L54970 41760
L55020 41780
L55040 41800
L55070 41850
L55090 41950
L55090 42070
L55070 42160
L55040 42210
L55020 42230
L54970 42260
L54920 42260
L54880 42230
L54850 42210
L54830 42160
L54810 42070
L54810 41950
L54830 41850
L54850 41800
L54880 41780
L54920 41760
" />
<path d="M55690 41920
L55690 42260
" />
<path d="M55690 41970
L55710 41950
L55760 41920
L55830 41920
L55880 41950
L55900 41990
L55900 42260
" />
<path d="M56070 41920
L56260 41920
" />
<path d="M56140 42260
L56140 41830
L56160 41780
L56210 41760
L56260 41760
" />
<path d="M57020 41920
L57020 42260
" />
<path d="M56900 41730
L56790 42090
L57090 42090
" />
<path d="M57380 41760
L57430 41760
L57480 41780
L57500 41800
L57530 41850
L57550 41950
L57550 42070
L57530 42160
L57500 42210
L57480 42230
L57430 42260
L57380 42260
L57340 42230
L57310 42210
L57290 42160
L57270 42070
L57270 41950
L57290 41850
L57310 41800
L57340 41780
L57380 41760
" />
<path d="M57860 41760
L57910 41760
L57960 41780
L57980 41800
L58010 41850
L58030 41950
L58030 42070
L58010 42160
L57980 42210
L57960 42230
L57910 42260
L57860 42260
L57820 42230
L57790 42210
L57770 42160
L57750 42070
L57750 41950
L57770 41850
L57790 41800
L57820 41780
L57860 41760
" />
<path d="M58180 41760
L58340 42260
L58510 41760
" />
</g>
<g style="fill:#008484; fill-opacity:0.0; 
stroke:#008484; stroke-width:0; stroke-opacity:1; 
stroke-linecap:round; stroke-linejoin:round;">
</g>
<g style="fill:#840000; fill-opacity:0.0; 
stroke:#840000; stroke-width:0; stroke-opacity:1; 
stroke-linecap:round; stroke-linejoin:round;">
</g>
<g style="fill:#840000; fill-opacity:0.0; 
stroke:#840000; stroke-width:100; stroke-opacity:1; 
stroke-linecap:round; stroke-linejoin:round;">
<rect x="50000" y="36600" width="2000" height="800" rx="0" />
</g>
<g style="fill:#840000; fill-opacity:0.0; 
stroke:#840000; stroke-width:60; stroke-opacity:1; 
stroke-linecap:round; stroke-linejoin:round;">
<path d="M52000 37000
L52500 37000
" />
<path d="M50000 37000
L49500 37000
" />
</g>
<g style="fill:#008484; fill-opacity:0.0; 
stroke:#008484; stroke-width:60; stroke-opacity:1; 
stroke-linecap:round; stroke-linejoin:round;">
<path d="M50910 38060
L50750 37820
" />
<path d="M50630 38060
L50630 37560
L50820 37560
L50870 37580
L50890 37600
L50910 37650
L50910 37720
L50890 37770
L50870 37790
L50820 37820
L50630 37820
" />
<path d="M51110 37600
L51130 37580
L51180 37560
L51300 37560
L51340 37580
L51370 37600
L51390 37650
L51390 37700
L51370 37770
L51080 38060
L51390 38060
" />
<path d="M50460 36970
L50410 36950
L50390 36920
L50370 36880
L50370 36850
L50390 36800
L50410 36780
L50460 36760
L50560 36760
L50600 36780
L50630 36800
L50650 36850
L50650 36880
L50630 36920
L50600 36950
L50560 36970
L50460 36970
L50410 36990
L50390 37020
L50370 37070
L50370 37160
L50390 37210
L50410 37230
L50460 37260
L50560 37260
L50600 37230
L50630 37210
L50650 37160
L50650 37070
L50630 37020
L50600 36990
L50560 36970
" />
<path d="M50870 37260
L50870 36760
" />
<path d="M51150 37260
L50940 36970
" />
<path d="M51150 36760
L50870 37040
" />
<path d="M51350 36800
L51370 36780
L51420 36760
L51540 36760
L51580 36780
L51610 36800
L51630 36850
L51630 36900
L51610 36970
L51320 37260
L51630 37260
" />
</g>
<g style="fill:#008484; fill-opacity:0.0; 
stroke:#008484; stroke-width:0; stroke-opacity:1; 
stroke-linecap:round; stroke-linejoin:round;">
</g>
<g style="fill:#840000; fill-opacity:0.0; 
stroke:#840000; stroke-width:0; stroke-opacity:1; 
stroke-linecap:round; stroke-linejoin:round;">
</g>
<g style="fill:#840000; fill-opacity:0.0; 
stroke:#840000; stroke-width:100; stroke-opacity:1; 
stroke-linecap:round; stroke-linejoin:round;">
<rect x="67500" y="29200" width="800" height="2000" rx="0" />
</g>
<g style="fill:#840000; fill-opacity:0.0; 
stroke:#840000; stroke-width:60; stroke-opacity:1; 
stroke-linecap:round; stroke-linejoin:round;">
<path d="M67900 29200
L67900 28700
" />
<path d="M67900 31200
L67900 31700
" />
</g>
<g style="fill:#008484; fill-opacity:0.0; 
stroke:#008484; stroke-width:60; stroke-opacity:1; 
stroke-linecap:round; stroke-linejoin:round;">
<path d="M68960 30290
L68720 30450
" />
<path d="M68960 30570
L68460 30570
L68460 30380
L68480 30330
L68500 30310
L68550 30290
L68620 30290
L68670 30310
L68690 30330
L68720 30380
L68720 30570
" />
<path d="M68460 30120
L68460 29810
L68650 29980
L68650 29900
L68670 29860
L68690 29830
L68740 29810
L68860 29810
L68910 29830
L68930 29860
L68960 29900
L68960 30050
L68930 30090
L68910 30120
" />
<path d="M69320 31530
L69660 31530
" />
<path d="M69130 31650
L69490 31760
L69490 31460
" />
<path d="M69160 31310
L69160 30980
L69660 31190
" />
<path d="M69160 30310
L69160 30210
L69180 30160
L69230 30120
L69320 30090
L69490 30090
L69580 30120
L69630 30160
L69660 30210
L69660 30310
L69630 30350
L69580 30400
L69490 30420
L69320 30420
L69230 30400
L69180 30350
L69160 30310
" />
<path d="M69660 29880
L69160 29880
" />
<path d="M69390 29880
L69390 29600
" />
<path d="M69660 29600
L69160 29600
" />
<path d="M69660 29360
L69160 29360
L69510 29190
L69160 29030
L69660 29030
" />
</g>
<g style="fill:#008484; fill-opacity:0.0; 
stroke:#008484; stroke-width:0; stroke-opacity:1; 
stroke-linecap:round; stroke-linejoin:round;">
</g>
<g style="fill:#840000; fill-opacity:0.0; 
stroke:#840000; stroke-width:0; stroke-opacity:1; 
stroke-linecap:round; stroke-linejoin:round;">
</g>
<g style="fill:#840000; fill-opacity:0.0; 
stroke:#840000; stroke-width:200; stroke-opacity:1; 
stroke-linecap:round; stroke-linejoin:round;">
<polyline fill="none;"
points="67100,38500
68700,38500
" /> 
<polyline fill="none;"
points="67100,37900
68700,37900
" /> 
</g>
<g style="fill:#840000; fill-opacity:0.0; 
stroke:#840000; stroke-width:60; stroke-opacity:1; 
stroke-linecap:round; stroke-linejoin:round;">
<path d="M67900 37800
L67900 36700
" />
<path d="M67900 38600
L67900 39700
" />
</g>
<g style="fill:#008484; fill-opacity:0.0; 
stroke:#008484; stroke-width:60; stroke-opacity:1; 
stroke-linecap:round; stroke-linejoin:round;">
<path d="M68550 37410
L68530 37430
L68460 37460
L68410 37460
L68340 37430
L68290 37380
L68270 37340
L68250 37240
L68250 37170
L68270 37080
L68290 37030
L68340 36980
L68410 36960
L68460 36960
L68530 36980
L68550 37000
" />
<path d="M68720 36960
L69030 36960
L68860 37150
L68940 37150
L68980 37170
L69010 37190
L69030 37240
L69030 37360
L69010 37410
L68980 37430
L68940 37460
L68790 37460
L68750 37430
L68720 37410
" />
<path d="M68530 39460
L68250 39460
" />
<path d="M68390 39460
L68390 38960
L68340 39030
L68290 39080
L68250 39100
" />
<path d="M68840 38960
L68890 38960
L68940 38980
L68960 39000
L68990 39050
L69010 39150
L69010 39270
L68990 39360
L68960 39410
L68940 39430
L68890 39460
L68840 39460
L68800 39430
L68770 39410
L68750 39360
L68730 39270
L68730 39150
L68750 39050
L68770 39000
L68800 38980
L68840 38960
" />
<path d="M69320 38960
L69370 38960
L69420 38980
L69440 39000
L69470 39050
L69490 39150
L69490 39270
L69470 39360
L69440 39410
L69420 39430
L69370 39460
L69320 39460
L69280 39430
L69250 39410
L69230 39360
L69210 39270
L69210 39150
L69230 39050
L69250 39000
L69280 38980
L69320 38960
" />
<path d="M70090 39120
L70090 39460
" />
<path d="M70090 39170
L70110 39150
L70160 39120
L70230 39120
L70280 39150
L70300 39190
L70300 39460
" />
<path d="M70470 39120
L70660 39120
" />
<path d="M70540 39460
L70540 39030
L70560 38980
L70610 38960
L70660 38960
" />
<path d="M71420 39120
L71420 39460
" />
<path d="M71300 38930
L71190 39290
L71490 39290
" />
<path d="M71780 38960
L71830 38960
L71880 38980
L71900 39000
L71930 39050
L71950 39150
L71950 39270
L71930 39360
L71900 39410
L71880 39430
L71830 39460
L71780 39460
L71740 39430
L71710 39410
L71690 39360
L71670 39270
L71670 39150
L71690 39050
L71710 39000
L71740 38980
L71780 38960
" />
<path d="M72260 38960
L72310 38960
L72360 38980
L72380 39000
L72410 39050
L72430 39150
L72430 39270
L72410 39360
L72380 39410
L72360 39430
L72310 39460
L72260 39460
L72220 39430
L72190 39410
L72170 39360
L72150 39270
L72150 39150
L72170 39050
L72190 39000
L72220 38980
L72260 38960
" />
<path d="M72580 38960
L72740 39460
L72910 38960
" />
</g>
<g style="fill:#000084; fill-opacity:0.0; 
stroke:#000084; stroke-width:60; stroke-opacity:1; 
stroke-linecap:round; stroke-linejoin:round;">
<path d="M44260 39260
L44740 39740
" />
<path d="M44740 39260
L44260 39740
" />
</g>
<g style="fill:#008400; fill-opacity:0.0; 
stroke:#008400; stroke-width:60; stroke-opacity:1; 
stroke-linecap:round; stroke-linejoin:round;">
<path d="M42400 28400
L42400 43000
" />
<path d="M44500 27400
L44500 29000
" />
<path d="M44500 32000
L44500 34500
" />
<path d="M46000 37000
L49500 37000
" />
<path d="M47500 37000
L47500 39500
" />
<path d="M47500 44000
L47500 42500
" />
</g>
<g style="fill:#008400; fill-opacity:0.0; 
stroke:#008400; stroke-width:0; stroke-opacity:1; 
stroke-linecap:round; stroke-linejoin:round;">
</g>
<g style="fill:#008400; fill-opacity:1.0; 
stroke:#008400; stroke-width:100; stroke-opacity:1; 
stroke-linecap:round; stroke-linejoin:round;">
<circle cx="47500" cy="37000" r="200" /> 
</g>
<g style="fill:#008400; fill-opacity:1.0; 
stroke:#008400; stroke-width:60; stroke-opacity:1; 
stroke-linecap:round; stroke-linejoin:round;">
</g>
<g style="fill:#008400; fill-opacity:0.0; 
stroke:#008400; stroke-width:60; stroke-opacity:1; 
stroke-linecap:round; stroke-linejoin:round;">
<path d="M53500 37000
L53500 39500
" />
<path d="M53500 44000
L53500 42500
" />
</g>
<g style="fill:#008400; fill-opacity:0.0; 
stroke:#008400; stroke-width:0; stroke-opacity:1; 
stroke-linecap:round; stroke-linejoin:round;">
</g>
<g style="fill:#008400; fill-opacity:1.0; 
stroke:#008400; stroke-width:100; stroke-opacity:1; 
stroke-linecap:round; stroke-linejoin:round;">
<circle cx="53500" cy="37000" r="200" /> 
</g>
<g style="fill:#008400; fill-opacity:1.0; 
stroke:#008400; stroke-width:60; stroke-opacity:1; 
stroke-linecap:round; stroke-linejoin:round;">
</g>
<g style="fill:#008400; fill-opacity:0.0; 
stroke:#008400; stroke-width:60; stroke-opacity:1; 
stroke-linecap:round; stroke-linejoin:round;">
<path d="M67900 31700
L67900 36700
" />
<path d="M67900 39700
L67900 44000
" />
</g>
<g style="fill:#008400; fill-opacity:0.0; 
stroke:#008400; stroke-width:0; stroke-opacity:1; 
stroke-linecap:round; stroke-linejoin:round;">
</g>
<g style="fill:#008400; fill-opacity:1.0; 
stroke:#008400; stroke-width:100; stroke-opacity:1; 
stroke-linecap:round; stroke-linejoin:round;">
<circle cx="47500" cy="44000" r="200" /> 
</g>
<g style="fill:#008400; fill-opacity:1.0; 
stroke:#008400; stroke-width:0; stroke-opacity:1; 
stroke-linecap:round; stroke-linejoin:round;">
</g>
<g style="fill:#008400; fill-opacity:1.0; 
stroke:#008400; stroke-width:100; stroke-opacity:1; 
stroke-linecap:round; stroke-linejoin:round;">
<circle cx="53500" cy="44000" r="200" /> 
</g>
<g style="fill:#008400; fill-opacity:1.0; 
stroke:#008400; stroke-width:0; stroke-opacity:1; 
stroke-linecap:round; stroke-linejoin:round;">
</g>
<g style="fill:#840000; fill-opacity:1.0; 
stroke:#840000; stroke-width:0; stroke-opacity:1; 
stroke-linecap:round; stroke-linejoin:round;">
</g>
<g style="fill:#840000; fill-opacity:0.0; 
stroke:#840000; stroke-width:60; stroke-opacity:1; 
stroke-linecap:round; stroke-linejoin:round;">
<polyline fill="none;"
points="56500,36500
58500,37500
58500,36500
56500,37500
56500,36500
" /> 
<path d="M56500 37000
L54500 37000
" />
<path d="M55640 36880
L55360 36880
" />
<path d="M55500 36880
L55500 36380
L55450 36450
L55400 36500
L55360 36520
" />
<path d="M58500 37000
L60500 37000
" />
<path d="M59360 36420
L59380 36400
L59430 36380
L59550 36380
L59590 36400
L59620 36420
L59640 36470
L59640 36520
L59620 36590
L59330 36880
L59640 36880
" />
</g>
<g style="fill:#008484; fill-opacity:0.0; 
stroke:#008484; stroke-width:60; stroke-opacity:1; 
stroke-linecap:round; stroke-linejoin:round;">
<path d="M56760 36310
L56760 35710
L56910 35710
L56990 35740
L57050 35800
L57080 35850
L57110 35970
L57110 36050
L57080 36170
L57050 36230
L56990 36280
L56910 36310
L56760 36310
" />
<path d="M57710 36250
L57680 36280
L57590 36310
L57530 36310
L57450 36280
L57390 36230
L57360 36170
L57330 36050
L57330 35970
L57360 35850
L57390 35800
L57450 35740
L57530 35710
L57590 35710
L57680 35740
L57710 35770
" />
<path d="M58280 36310
L57930 36310
" />
<path d="M58110 36310
L58110 35710
L58050 35800
L57990 35850
L57930 35880
" />
<path d="M56910 37970
L56850 37940
L56820 37910
L56790 37850
L56790 37830
L56820 37770
L56850 37740
L56910 37710
L57020 37710
L57080 37740
L57110 37770
L57140 37830
L57140 37850
L57110 37910
L57080 37940
L57020 37970
L56910 37970
L56850 38000
L56820 38030
L56790 38080
L56790 38200
L56820 38250
L56850 38280
L56910 38310
L57020 38310
L57080 38280
L57110 38250
L57140 38200
L57140 38080
L57110 38030
L57080 38000
L57020 37970
" />
<path d="M57310 37710
L57510 38310
L57710 37710
" />
<path d="M57870 37770
L57900 37740
L57960 37710
L58100 37710
L58160 37740
L58190 37770
L58220 37830
L58220 37880
L58190 37970
L57850 38310
L58220 38310
" />
</g>
<g style="fill:#008400; fill-opacity:0.0; 
stroke:#008400; stroke-width:60; stroke-opacity:1; 
stroke-linecap:round; stroke-linejoin:round;">
<path d="M52500 37000
L54500 37000
" />
<path d="M60500 37000
L61000 37000
" />
</g>
<g style="fill:#008400; fill-opacity:0.0; 
stroke:#008400; stroke-width:0; stroke-opacity:1; 
stroke-linecap:round; stroke-linejoin:round;">
</g>
<g style="fill:#840000; fill-opacity:0.0; 
stroke:#840000; stroke-width:0; stroke-opacity:1; 
stroke-linecap:round; stroke-linejoin:round;">
</g>
<g style="fill:#840000; fill-opacity:0.0; 
stroke:#840000; stroke-width:80; stroke-opacity:1; 
stroke-linecap:round; stroke-linejoin:round;">
<polyline fill="none;"
points="61500,36500
63500,36500
" /> 
<polyline fill="none;"
points="61500,35500
63500,35500
" /> 
</g>
<g style="fill:#840000; fill-opacity:0.0; 
stroke:#840000; stroke-width:60; stroke-opacity:1; 
stroke-linecap:round; stroke-linejoin:round;">
<polyline fill="none;"
points="62000,37000
62250,36500
" /> 
</g>
<g style="fill:#840000; fill-opacity:0.0; 
stroke:#840000; stroke-width:80; stroke-opacity:1; 
stroke-linecap:round; stroke-linejoin:round;">
<polyline fill="none;"
points="61500,35500
62000,36500
62500,35500
" /> 
<polyline fill="none;"
points="62500,36500
63000,35500
63500,36500
" /> 
</g>
<g style="fill:#840000; fill-opacity:0.0; 
stroke:#840000; stroke-width:60; stroke-opacity:1; 
stroke-linecap:round; stroke-linejoin:round;">
<path d="M62500 35500
L62500 34500
" />
<path d="M63080 34860
L63080 35140
" />
<path d="M63080 35000
L62580 35000
L62650 35050
L62700 35100
L62720 35140
" />
<path d="M62500 36500
L62500 37500
" />
<path d="M62620 37140
L62600 37120
L62580 37070
L62580 36950
L62600 36910
L62620 36880
L62670 36860
L62720 36860
L62790 36880
L63080 37170
L63080 36860
" />
<path d="M62000 37000
L61000 37000
" />
<path d="M61330 37080
L61640 37080
L61470 37270
L61550 37270
L61590 37290
L61620 37310
L61640 37360
L61640 37480
L61620 37530
L61590 37550
L61550 37580
L61400 37580
L61360 37550
L61330 37530
" />
</g>
<g style="fill:#008484; fill-opacity:0.0; 
stroke:#008484; stroke-width:60; stroke-opacity:1; 
stroke-linecap:round; stroke-linejoin:round;">
<path d="M63790 34890
L63860 34920
L63880 34940
L63900 34990
L63900 35060
L63880 35110
L63860 35130
L63810 35160
L63620 35160
L63620 34660
L63790 34660
L63830 34680
L63860 34700
L63880 34750
L63880 34800
L63860 34850
L63830 34870
L63790 34890
L63620 34890
" />
<path d="M64050 34660
L64330 34660
" />
<path d="M64190 35160
L64190 34660
" />
<path d="M64760 35160
L64480 35160
" />
<path d="M64620 35160
L64620 34660
L64570 34730
L64520 34780
L64480 34800
" />
<path d="M64930 34660
L65240 34660
L65070 34850
L65150 34850
L65190 34870
L65220 34890
L65240 34940
L65240 35060
L65220 35110
L65190 35130
L65150 35160
L65000 35160
L64960 35130
L64930 35110
" />
<path d="M65670 34820
L65670 35160
" />
<path d="M65550 34630
L65440 34990
L65740 34990
" />
<path d="M63150 34400
L63100 34380
L63060 34330
L62990 34260
L62940 34240
L62890 34240
" />
<path d="M62910 34360
L62870 34330
L62820 34280
L62800 34190
L62800 34020
L62820 33930
L62870 33880
L62910 33860
L63010 33860
L63060 33880
L63100 33930
L63130 34020
L63130 34190
L63100 34280
L63060 34330
L63010 34360
L62910 34360
" />
<path d="M63220 34400
L63600 34400
" />
<path d="M63650 33860
L63930 33860
" />
<path d="M63790 34360
L63790 33860
" />
<path d="M64380 34360
L64220 34120
" />
<path d="M64100 34360
L64100 33860
L64290 33860
L64340 33880
L64360 33900
L64380 33950
L64380 34020
L64360 34070
L64340 34090
L64290 34120
L64100 34120
" />
<path d="M64600 34360
L64600 33860
" />
<path d="M64820 34210
L65050 34210
" />
<path d="M64770 34360
L64930 33860
L65100 34360
" />
<path d="M65550 34310
L65530 34330
L65460 34360
L65410 34360
L65340 34330
L65290 34280
L65270 34240
L65250 34140
L65250 34070
L65270 33980
L65290 33930
L65340 33880
L65410 33860
L65460 33860
L65530 33880
L65550 33900
" />
<path d="M65650 34400
L66030 34400
" />
<path d="M66130 34210
L66360 34210
" />
<path d="M66080 34360
L66240 33860
L66410 34360
" />
<path d="M66560 34210
L66790 34210
" />
<path d="M66510 34360
L66670 33860
L66840 34360
" />
<path d="M67270 33880
L67220 33860
L67150 33860
L67080 33880
L67030 33930
L67010 33980
L66990 34070
L66990 34140
L67010 34240
L67030 34280
L67080 34330
L67150 34360
L67200 34360
L67270 34330
L67290 34310
L67290 34140
L67200 34140
" />
</g>
<g style="fill:#008400; fill-opacity:0.0; 
stroke:#008400; stroke-width:60; stroke-opacity:1; 
stroke-linecap:round; stroke-linejoin:round;">
<path d="M62500 27400
L62500 34500
" />
<path d="M42900 44000
L62600 44000
" />
<path d="M62500 37500
L62500 44000
" />
</g>
<g style="fill:#008400; fill-opacity:0.0; 
stroke:#008400; stroke-width:0; stroke-opacity:1; 
stroke-linecap:round; stroke-linejoin:round;">
</g>
<g style="fill:#008400; fill-opacity:1.0; 
stroke:#008400; stroke-width:100; stroke-opacity:1; 
stroke-linecap:round; stroke-linejoin:round;">
<circle cx="62500" cy="44000" r="200" /> 
</g>
<g style="fill:#008400; fill-opacity:1.0; 
stroke:#008400; stroke-width:0; stroke-opacity:1; 
stroke-linecap:round; stroke-linejoin:round;">
</g>
<g style="fill:#840000; fill-opacity:1.0; 
stroke:#840000; stroke-width:0; stroke-opacity:1; 
stroke-linecap:round; stroke-linejoin:round;">
</g>
<g style="fill:#840000; fill-opacity:0.0; 
stroke:#840000; stroke-width:60; stroke-opacity:1; 
stroke-linecap:round; stroke-linejoin:round;">
<rect x="41850" y="46200" width="100" height="600" rx="0" />
<rect x="42850" y="46200" width="100" height="600" rx="0" />
<rect x="41400" y="46200" width="2000" height="1000" rx="0" />
<path d="M42900 46200
L42900 44700
" />
<path d="M42780 45310
L42780 45590
" />
<path d="M42780 45450
L42280 45450
L42350 45500
L42400 45550
L42420 45590
" />
<path d="M41900 46200
L41900 44700
" />
<path d="M41320 45590
L41300 45570
L41280 45520
L41280 45400
L41300 45360
L41320 45330
L41370 45310
L41420 45310
L41490 45330
L41780 45620
L41780 45310
" />
</g>
<g style="fill:#008484; fill-opacity:0.0; 
stroke:#008484; stroke-width:60; stroke-opacity:1; 
stroke-linecap:round; stroke-linejoin:round;">
<path d="M39480 48260
L39480 47760
L39670 47760
L39720 47780
L39740 47800
L39760 47850
L39760 47920
L39740 47970
L39720 47990
L39670 48020
L39480 48020
" />
<path d="M40070 47760
L40170 47760
L40220 47780
L40260 47830
L40290 47920
L40290 48090
L40260 48180
L40220 48230
L40170 48260
L40070 48260
L40030 48230
L39980 48180
L39960 48090
L39960 47920
L39980 47830
L40030 47780
L40070 47760
" />
<path d="M40450 47760
L40570 48260
L40670 47900
L40760 48260
L40880 47760
" />
<path d="M41070 47990
L41240 47990
" />
<path d="M41310 48260
L41070 48260
L41070 47760
L41310 47760
" />
<path d="M41800 48260
L41640 48020
" />
<path d="M41520 48260
L41520 47760
L41710 47760
L41760 47780
L41780 47800
L41800 47850
L41800 47920
L41780 47970
L41760 47990
L41710 48020
L41520 48020
" />
<path d="M41900 48300
L42280 48300
" />
<path d="M42380 48230
L42450 48260
L42570 48260
L42610 48230
L42640 48210
L42660 48160
L42660 48110
L42640 48070
L42610 48040
L42570 48020
L42470 47990
L42420 47970
L42400 47950
L42380 47900
L42380 47850
L42400 47800
L42420 47780
L42470 47760
L42590 47760
L42660 47780
" />
<path d="M42830 47760
L42950 48260
L43050 47900
L43140 48260
L43260 47760
" />
<path d="M43450 48260
L43450 47760
" />
<path d="M43620 47760
L43900 47760
" />
<path d="M43760 48260
L43760 47760
" />
<path d="M44350 48210
L44330 48230
L44260 48260
L44210 48260
L44140 48230
L44090 48180
L44070 48140
L44050 48040
L44050 47970
L44070 47880
L44090 47830
L44140 47780
L44210 47760
L44260 47760
L44330 47780
L44350 47800
" />
<path d="M44570 48260
L44570 47760
" />
<path d="M44570 47990
L44850 47990
" />
<path d="M44850 48260
L44850 47760
" />
<path d="M45350 48260
L45070 48260
" />
<path d="M45210 48260
L45210 47760
L45160 47830
L45110 47880
L45070 47900
" />
<path d="M40480 49110
L40460 49130
L40390 49160
L40340 49160
L40270 49130
L40220 49080
L40200 49040
L40180 48940
L40180 48870
L40200 48780
L40220 48730
L40270 48680
L40340 48660
L40390 48660
L40460 48680
L40480 48700
" />
<path d="M40790 48660
L40890 48660
L40940 48680
L40980 48730
L41010 48820
L41010 48990
L40980 49080
L40940 49130
L40890 49160
L40790 49160
L40750 49130
L40700 49080
L40680 48990
L40680 48820
L40700 48730
L40750 48680
L40790 48660
" />
<path d="M41220 49160
L41220 48660
L41500 49160
L41500 48660
" />
<path d="M41740 49160
L41740 48660
L42020 49160
L42020 48660
" />
<path d="M42140 49200
L42520 49200
" />
<path d="M42730 48660
L42780 48660
L42830 48680
L42850 48700
L42880 48750
L42900 48850
L42900 48970
L42880 49060
L42850 49110
L42830 49130
L42780 49160
L42730 49160
L42690 49130
L42660 49110
L42640 49060
L42620 48970
L42620 48850
L42640 48750
L42660 48700
L42690 48680
L42730 48660
" />
<path d="M43380 49160
L43100 49160
" />
<path d="M43240 49160
L43240 48660
L43190 48730
L43140 48780
L43100 48800
" />
<path d="M43550 48660
L43880 49160
" />
<path d="M43880 48660
L43550 49160
" />
<path d="M44170 48660
L44220 48660
L44270 48680
L44290 48700
L44320 48750
L44340 48850
L44340 48970
L44320 49060
L44290 49110
L44270 49130
L44220 49160
L44170 49160
L44130 49130
L44100 49110
L44080 49060
L44060 48970
L44060 48850
L44080 48750
L44100 48700
L44130 48680
L44170 48660
" />
<path d="M44540 48700
L44560 48680
L44610 48660
L44730 48660
L44770 48680
L44800 48700
L44820 48750
L44820 48800
L44800 48870
L44510 49160
L44820 49160
" />
</g>
<g style="fill:#008400; fill-opacity:0.0; 
stroke:#008400; stroke-width:60; stroke-opacity:1; 
stroke-linecap:round; stroke-linejoin:round;">
<path d="M42400 43000
L41700 43000
" />
<path d="M41900 44000
L41900 44700
" />
<path d="M42900 44700
L42900 44000
" />
<path d="M62500 44000
L67900 44000
" />
<path d="M39000 43000
L39700 43000
" />
<path d="M39000 44000
L41900 44000
" />
<path d="M39400 28400
L42400 28400
" />
<path d="M39400 27400
L67900 27400
" />
</g>
<g style="fill:#008400; fill-opacity:0.0; 
stroke:#008400; stroke-width:0; stroke-opacity:1; 
stroke-linecap:round; stroke-linejoin:round;">
</g>
<g style="fill:#008400; fill-opacity:1.0; 
stroke:#008400; stroke-width:100; stroke-opacity:1; 
stroke-linecap:round; stroke-linejoin:round;">
<circle cx="44500" cy="27400" r="200" /> 
</g>
<g style="fill:#008400; fill-opacity:1.0; 
stroke:#008400; stroke-width:60; stroke-opacity:1; 
stroke-linecap:round; stroke-linejoin:round;">
</g>
<g style="fill:#008400; fill-opacity:0.0; 
stroke:#008400; stroke-width:60; stroke-opacity:1; 
stroke-linecap:round; stroke-linejoin:round;">
<path d="M67900 27400
L67900 28700
" />
</g>
<g style="fill:#008400; fill-opacity:0.0; 
stroke:#008400; stroke-width:0; stroke-opacity:1; 
stroke-linecap:round; stroke-linejoin:round;">
</g>
<g style="fill:#008400; fill-opacity:1.0; 
stroke:#008400; stroke-width:100; stroke-opacity:1; 
stroke-linecap:round; stroke-linejoin:round;">
<circle cx="62500" cy="27400" r="200" /> 
</g> 
</svg>
